<?xml version="1.0" encoding="utf-8"?>
<svg fill="#0066cc" width="700pt" height="700pt" version="1.1" viewBox="0 0 700 700" xmlns="http://www.w3.org/2000/svg" xmlns:xlink="http://www.w3.org/1999/xlink">
  <defs>
    <symbol id="i" overflow="visible"/>
    <symbol id="e" overflow="visible"/>
    <symbol id="b" overflow="visible"/>
    <symbol id="d" overflow="visible"/>
    <symbol id="c" overflow="visible"/>
    <symbol id="l" overflow="visible"/>
    <symbol id="f" overflow="visible"/>
    <symbol id="k" overflow="visible"/>
    <symbol id="j" overflow="visible"/>
    <symbol id="u" overflow="visible"/>
    <symbol id="h" overflow="visible"/>
    <symbol id="a" overflow="visible"/>
    <symbol id="t" overflow="visible"/>
    <symbol id="g" overflow="visible"/>
    <symbol id="s" overflow="visible"/>
    <symbol id="r" overflow="visible"/>
    <symbol id="q" overflow="visible"/>
    <symbol id="p" overflow="visible"/>
    <symbol id="o" overflow="visible"/>
    <symbol id="n" overflow="visible"/>
    <symbol id="m" overflow="visible"/>
  </defs>
  <g style="" transform="matrix(1.136968, 0, 0, 1.152466, -9.660563, -103.379128)">
    <path d="m523.23 139.77h-346.46c-3.0391 0-5.5 2.457-5.5 5.5v269.47c0 3.0391 2.457 5.5 5.5 5.5h346.46c3.0391 0 5.5-2.457 5.5-5.5l-0.003906-269.47c0.007813-3.043-2.4531-5.5-5.4922-5.5zm-5.5039 269.47h-335.46v-258.48h335.46z"/>
    <path d="m204.3 204.27h291.39c3.0586 0 5.5312-2.4766 5.5312-5.5312 0-3.0508-2.4766-5.5273-5.5312-5.5273h-291.39c-3.0586 0-5.5312 2.4766-5.5312 5.5273-0.003906 3.0508 2.4766 5.5312 5.5312 5.5312z"/>
    <path d="m215.27 172.76c0 4.5547-3.6953 8.2461-8.25 8.2461s-8.25-3.6914-8.25-8.2461c0-4.5586 3.6953-8.25 8.25-8.25s8.25 3.6914 8.25 8.25"/>
    <path d="m237.26 172.76c0 4.5547-3.6953 8.2461-8.25 8.2461-4.5547 0-8.25-3.6914-8.25-8.2461 0-4.5586 3.6953-8.25 8.25-8.25 4.5547 0 8.25 3.6914 8.25 8.25"/>
    <path d="m259.26 172.76c0 4.5547-3.6914 8.2461-8.2461 8.2461-4.5586 0-8.25-3.6914-8.25-8.2461 0-4.5586 3.6914-8.25 8.25-8.25 4.5547 0 8.2461 3.6914 8.2461 8.25"/>
    <path d="m364.96 307.69 27.199-33.32c2.3086-2.9062 3.5273-5.6562 3.5273-9.0117 0-6.7266-5.5-10.852-10.703-10.852-5.1875 0-8.25 2.2852-11.453 6.4102l-23.238 30.574-23.387-31.18c-2.9023-3.8242-5.7891-5.8008-10.852-5.8008-6.7148 0-11.609 5.0352-11.609 11.613 0 3.3594 1.6797 6.418 3.5156 8.7148l27.219 33.16-28.902 35.453c-2.2891 2.9102-3.5039 5.6562-3.5039 9.0117 0 6.7305 5.5 10.852 10.703 10.852 5.1914 0 8.2539-2.2891 11.457-6.418l24.762-32.25 25.059 32.855c2.9102 3.8203 5.8086 5.8086 10.852 5.8086 6.7266 0 11.621-5.0391 11.621-11.609 0-3.3711-1.6797-6.418-3.5234-8.7148z"/>
    <use transform="matrix(1, 0, 0, 1, 90.55078125, 644)" style="visibility: hidden;" xlink:href="#e"/>
    <use transform="matrix(1, 0, 0, 1, 123.34765625, 644)" xlink:href="#d"/>
    <use transform="matrix(1, 0, 0, 1, 142.2421875, 644)" xlink:href="#c"/>
    <use transform="matrix(1, 0, 0, 1, 155.62890625, 644)" xlink:href="#b"/>
    <use transform="matrix(1, 0, 0, 1, 174.6171875, 644)" xlink:href="#l"/>
    <use transform="matrix(1, 0, 0, 1, 204.41015625, 644)" xlink:href="#f"/>
    <use transform="matrix(1, 0, 0, 1, 224.453125, 644)" xlink:href="#k"/>
    <use transform="matrix(1, 0, 0, 1, 252.453125, 644)" xlink:href="#j"/>
    <use transform="matrix(1, 0, 0, 1, 271.578125, 644)" xlink:href="#d"/>
    <use transform="matrix(1, 0, 0, 1, 290.47265625, 644)" xlink:href="#f"/>
    <use transform="matrix(1, 0, 0, 1, 310.515625, 644)" xlink:href="#u"/>
    <use transform="matrix(1, 0, 0, 1, 320.11328125, 644)" xlink:href="#d"/>
    <use transform="matrix(1, 0, 0, 1, 339.0078125, 644)" xlink:href="#h"/>
    <use transform="matrix(1, 0, 0, 1, 358.94140625, 644)" xlink:href="#a"/>
    <use transform="matrix(1, 0, 0, 1, 387.92578125, 644)" xlink:href="#i"/>
    <use transform="matrix(1, 0, 0, 1, 408.4765625, 644)" xlink:href="#a"/>
    <use transform="matrix(1, 0, 0, 1, 427.7109375, 644)" xlink:href="#b"/>
    <use transform="matrix(1, 0, 0, 1, 446.703125, 644)" xlink:href="#t"/>
    <use transform="matrix(1, 0, 0, 1, 456.296875, 644)" xlink:href="#g"/>
    <use transform="matrix(1, 0, 0, 1, 476.234375, 644)" xlink:href="#a"/>
    <use transform="matrix(1, 0, 0, 1, 70, 672)" xlink:href="#s"/>
    <use transform="matrix(1, 0, 0, 1, 82.18359375, 672)" xlink:href="#e"/>
    <use transform="matrix(1, 0, 0, 1, 95.9921875, 672)" xlink:href="#a"/>
    <use transform="matrix(1, 0, 0, 1, 115.2265625, 672)" xlink:href="#r"/>
    <use transform="matrix(1, 0, 0, 1, 154.15234375, 672)" xlink:href="#c"/>
    <use transform="matrix(1, 0, 0, 1, 167.53515625, 672)" xlink:href="#g"/>
    <use transform="matrix(1, 0, 0, 1, 187.46875, 672)" xlink:href="#b"/>
    <use transform="matrix(1, 0, 0, 1, 216.20703125, 672)" xlink:href="#q"/>
    <use transform="matrix(1, 0, 0, 1, 239.640625, 672)" xlink:href="#a"/>
    <use transform="matrix(1, 0, 0, 1, 258.87890625, 672)" xlink:href="#p"/>
    <use transform="matrix(1, 0, 0, 1, 278.8125, 672)" xlink:href="#h"/>
    <use transform="matrix(1, 0, 0, 1, 308.4921875, 672)" xlink:href="#o"/>
    <use transform="matrix(1, 0, 0, 1, 329.015625, 672)" xlink:href="#e"/>
    <use transform="matrix(1, 0, 0, 1, 342.8203125, 672)" xlink:href="#a"/>
    <use transform="matrix(1, 0, 0, 1, 362.05859375, 672)" xlink:href="#n"/>
    <use transform="matrix(1, 0, 0, 1, 371.65625, 672)" xlink:href="#b"/>
    <use transform="matrix(1, 0, 0, 1, 390.6484375, 672)" xlink:href="#m"/>
    <use transform="matrix(1, 0, 0, 1, 407.2421875, 672)" xlink:href="#c"/>
  </g>
</svg>